<svg width="45" height="45" viewBox="0 0 45 45" fill="none" xmlns="http://www.w3.org/2000/svg">
<path d="M12.5 37.5H16.25V32.5H21.25V28.75H16.25V23.75H12.5V28.75H7.5V32.5H12.5V37.5ZM25 35.625H37.5V31.875H25V35.625ZM25 29.375H37.5V25.625H25V29.375ZM27.75 19.875L31.25 16.375L34.75 19.875L37.375 17.25L33.875 13.625L37.375 10.125L34.75 7.5L31.25 11L27.75 7.5L25.125 10.125L28.625 13.625L25.125 17.25L27.75 19.875ZM8.125 15.5H20.625V11.75H8.125V15.5ZM5 45C3.625 45 2.44792 44.5104 1.46875 43.5312C0.489583 42.5521 0 41.375 0 40V5C0 3.625 0.489583 2.44792 1.46875 1.46875C2.44792 0.489583 3.625 0 5 0H40C41.375 0 42.5521 0.489583 43.5312 1.46875C44.5104 2.44792 45 3.625 45 5V40C45 41.375 44.5104 42.5521 43.5312 43.5312C42.5521 44.5104 41.375 45 40 45H5ZM5 40H40V5H5V40ZM5 5V40V5Z" fill="#E5E2E1"/>
</svg>
