<svg width="27" height="27" viewBox="0 0 27 27" fill="none" xmlns="http://www.w3.org/2000/svg">
<path d="M25.875 9C25.875 4.64625 22.3538 1.125 18 1.125C14.0288 1.125 10.7662 4.06125 10.215 7.875H5.0625C4.32 7.875 3.69 8.3475 3.465 9L1.125 15.75V24.75C1.125 25.3687 1.63125 25.875 2.25 25.875H3.375C3.99375 25.875 4.5 25.3687 4.5 24.75V23.625H18V24.75C18 25.3687 18.5063 25.875 19.125 25.875H20.25C20.8687 25.875 21.375 25.3687 21.375 24.75V16.11C24.03 14.8387 25.875 12.1388 25.875 9ZM5.0625 9.5625H10.1587C10.2937 11.5425 11.16 13.32 12.4987 14.625H3.375L5.0625 9.5625ZM5.0625 20.25C4.12875 20.25 3.375 19.4963 3.375 18.5625C3.375 17.6287 4.12875 16.875 5.0625 16.875C5.99625 16.875 6.75 17.6287 6.75 18.5625C6.75 19.4963 5.99625 20.25 5.0625 20.25ZM17.4375 20.25C16.5037 20.25 15.75 19.4963 15.75 18.5625C15.75 17.6287 16.5037 16.875 17.4375 16.875C18.3713 16.875 19.125 17.6287 19.125 18.5625C19.125 19.4963 18.3713 20.25 17.4375 20.25ZM18 14.625C16.4362 14.625 15.12 14.0625 14.0288 12.9712C12.9375 11.88 12.375 10.5638 12.375 9C12.375 7.47 12.9375 6.1425 14.0288 5.0625C15.12 3.9375 16.4362 3.375 18 3.375C19.53 3.375 20.8575 3.9375 21.9375 5.0625C23.0625 6.1425 23.625 7.47 23.625 9C23.625 10.5638 23.0625 11.88 21.9375 12.9712C20.8575 14.0625 19.53 14.625 18 14.625ZM18.5625 9.28125L21.78 11.1825L20.9363 12.555L16.875 10.125V4.5H18.5625V9.28125Z" fill="#D90429"/>
</svg>
