<svg width="93" height="98" viewBox="0 0 93 98" fill="none" xmlns="http://www.w3.org/2000/svg">
<path opacity="0.05" d="M47.5 105C42.25 105 37.8125 103.188 34.1875 99.5625C30.5625 95.9375 28.75 91.5 28.75 86.25C28.75 81.9167 30.0417 78.1042 32.625 74.8125C35.2083 71.5208 38.5 69.2917 42.5 68.125V57.5H12.5V37.5H0V2.5H35V37.5H22.5V47.5H72.5V36.875C68.5 35.7083 65.2083 33.4792 62.625 30.1875C60.0417 26.8958 58.75 23.0833 58.75 18.75C58.75 13.5 60.5625 9.0625 64.1875 5.4375C67.8125 1.8125 72.25 0 77.5 0C82.75 0 87.1875 1.8125 90.8125 5.4375C94.4375 9.0625 96.25 13.5 96.25 18.75C96.25 23.0833 94.9583 26.8958 92.375 30.1875C89.7917 33.4792 86.5 35.7083 82.5 36.875V57.5H52.5V68.125C56.5 69.2917 59.7917 71.5208 62.375 74.8125C64.9583 78.1042 66.25 81.9167 66.25 86.25C66.25 91.5 64.4375 95.9375 60.8125 99.5625C57.1875 103.188 52.75 105 47.5 105ZM77.5 27.5C79.9167 27.5 81.9792 26.6458 83.6875 24.9375C85.3958 23.2292 86.25 21.1667 86.25 18.75C86.25 16.3333 85.3958 14.2708 83.6875 12.5625C81.9792 10.8542 79.9167 10 77.5 10C75.0833 10 73.0208 10.8542 71.3125 12.5625C69.6042 14.2708 68.75 16.3333 68.75 18.75C68.75 21.1667 69.6042 23.2292 71.3125 24.9375C73.0208 26.6458 75.0833 27.5 77.5 27.5ZM10 27.5H25V12.5H10V27.5ZM47.5 95C49.9167 95 51.9792 94.1458 53.6875 92.4375C55.3958 90.7292 56.25 88.6667 56.25 86.25C56.25 83.8333 55.3958 81.7708 53.6875 80.0625C51.9792 78.3542 49.9167 77.5 47.5 77.5C45.0833 77.5 43.0208 78.3542 41.3125 80.0625C39.6042 81.7708 38.75 83.8333 38.75 86.25C38.75 88.6667 39.6042 90.7292 41.3125 92.4375C43.0208 94.1458 45.0833 95 47.5 95Z" fill="#E5E2E1"/>
</svg>
