<svg width="80" height="95" viewBox="0 0 80 95" fill="none" xmlns="http://www.w3.org/2000/svg">
<path opacity="0.05" d="M40 70C48.5 62.3333 53.9583 56.9375 56.375 53.8125C58.7917 50.6875 60 47.5833 60 44.5C60 41.5 58.9167 38.9167 56.75 36.75C54.5833 34.5833 52 33.5 49 33.5C47.25 33.5 45.5625 33.8542 43.9375 34.5625C42.3125 35.2708 41 36.25 40 37.5C39 36.25 37.7083 35.2708 36.125 34.5625C34.5417 33.8542 32.8333 33.5 31 33.5C28 33.5 25.4167 34.5833 23.25 36.75C21.0833 38.9167 20 41.5 20 44.5C20 46.0833 20.2083 47.5417 20.625 48.875C21.0417 50.2083 21.9583 51.7708 23.375 53.5625C24.7917 55.3542 26.8125 57.5417 29.4375 60.125C32.0625 62.7083 35.5833 66 40 70ZM40 100C28.4167 97.0833 18.8542 90.4375 11.3125 80.0625C3.77083 69.6875 0 58.1667 0 45.5V15L40 0L80 15V45.5C80 58.1667 76.2292 69.6875 68.6875 80.0625C61.1458 90.4375 51.5833 97.0833 40 100ZM40 89.5C48.6667 86.75 55.8333 81.25 61.5 73C67.1667 64.75 70 55.5833 70 45.5V21.875L40 10.625L10 21.875V45.5C10 55.5833 12.8333 64.75 18.5 73C24.1667 81.25 31.3333 86.75 40 89.5Z" fill="#E5E2E1"/>
</svg>
