<svg width="89" height="89" viewBox="0 0 89 89" fill="none" xmlns="http://www.w3.org/2000/svg">
<circle cx="44.4889" cy="44.4887" r="27.5" transform="rotate(14.5271 44.4889 44.4887)" fill="#D9D9D9"/>
<g clip-path="url(#clip0_50_972)">
<path d="M42.4146 28.2406L40.8887 34.1295L46.7775 35.6554L40.6738 59.2108L46.5627 60.7367L54.1923 31.2925L42.4146 28.2406ZM52.1183 15.0444C55.985 16.0464 59.6164 17.8001 62.8053 20.2055C65.9942 22.6109 68.6782 25.6208 70.7038 29.0634C72.7295 32.5061 74.0573 36.314 74.6113 40.2697C75.1653 44.2255 74.9348 48.2516 73.9329 52.1183C71.9094 59.9274 66.8666 66.6128 59.9139 70.7039C52.9612 74.7949 44.6681 75.9564 36.859 73.9329C32.9923 72.9309 29.3609 71.1772 26.1719 68.7718C22.983 66.3665 20.2991 63.3565 18.2735 59.9139C14.1824 52.9612 13.0209 44.6681 15.0444 36.859C17.0679 29.0499 22.1107 22.3645 29.0634 18.2735C36.0161 14.1825 44.3092 13.0209 52.1183 15.0444Z" fill="#D90429"/>
</g>
<defs>
<clipPath id="clip0_50_972">
<rect width="73" height="73" fill="white" transform="translate(18.3113) rotate(14.5271)"/>
</clipPath>
</defs>
</svg>
