<svg width="89" height="89" viewBox="0 0 89 89" fill="none" xmlns="http://www.w3.org/2000/svg">
<circle cx="44.4889" cy="44.4887" r="27.5" transform="rotate(14.5271 44.4889 44.4887)" fill="#D9D9D9"/>
<g clip-path="url(#clip0_50_1002)">
<path d="M51.033 55.6108L52.1775 51.1942C52.481 50.0228 52.3068 48.7789 51.6931 47.736C51.0795 46.6931 50.0766 45.9366 48.9053 45.6331C50.0766 45.9366 51.3206 45.7624 52.3635 45.1488C53.4064 44.5351 54.1628 43.5323 54.4664 42.3609L55.6108 37.9443C56.0155 36.3825 55.7832 34.7239 54.965 33.3333C54.1468 31.9428 52.8097 30.9342 51.2479 30.5295L39.4702 27.4777L37.9443 33.3665L49.722 36.4184L48.196 42.3072L42.3072 40.7813L40.7813 46.6701L46.6701 48.1961L45.1442 54.0849L33.3665 51.033L31.8406 56.9219L43.6182 59.9737C45.1801 60.3784 46.8387 60.1461 48.2292 59.3279C49.6198 58.5097 50.6283 57.1726 51.033 55.6108ZM52.1183 15.0444C55.985 16.0464 59.6164 17.8001 62.8053 20.2055C65.9942 22.6109 68.6782 25.6208 70.7038 29.0634C72.7295 32.5061 74.0573 36.314 74.6113 40.2697C75.1653 44.2255 74.9348 48.2516 73.9329 52.1183C71.9094 59.9274 66.8666 66.6128 59.9139 70.7039C52.9612 74.7949 44.6681 75.9564 36.859 73.9329C32.9923 72.9309 29.3609 71.1772 26.1719 68.7718C22.983 66.3665 20.2991 63.3565 18.2735 59.9139C14.1824 52.9612 13.0209 44.6681 15.0444 36.859C17.0679 29.0499 22.1107 22.3645 29.0634 18.2735C36.0161 14.1825 44.3092 13.0209 52.1183 15.0444Z" fill="#D90429"/>
</g>
<defs>
<clipPath id="clip0_50_1002">
<rect width="73" height="73" fill="white" transform="translate(18.3113) rotate(14.5271)"/>
</clipPath>
</defs>
</svg>
