<svg width="25" height="30" viewBox="0 0 25 30" fill="none" xmlns="http://www.w3.org/2000/svg">
<path opacity="0.2" d="M10.8594 20.325L19.6875 11.85L17.4609 9.7125L10.8594 16.05L7.57812 12.9L5.35156 15.0375L10.8594 20.325ZM12.5 30C8.88021 29.125 5.89193 27.1312 3.53516 24.0187C1.17839 20.9062 0 17.45 0 13.65V4.5L12.5 0L25 4.5V13.65C25 17.45 23.8216 20.9062 21.4648 24.0187C19.1081 27.1312 16.1198 29.125 12.5 30ZM12.5 26.85C15.2083 26.025 17.4479 24.375 19.2188 21.9C20.9896 19.425 21.875 16.675 21.875 13.65V6.5625L12.5 3.1875L3.125 6.5625V13.65C3.125 16.675 4.01042 19.425 5.78125 21.9C7.55208 24.375 9.79167 26.025 12.5 26.85Z" fill="#FFB3AF"/>
</svg>
