<svg width="13" height="9" viewBox="0 0 13 9" fill="none" xmlns="http://www.w3.org/2000/svg">
<path d="M2.91667 8.16667C2.43056 8.16667 2.01736 7.99653 1.67708 7.65625C1.33681 7.31597 1.16667 6.90278 1.16667 6.41667H0V1.16667C0 0.845833 0.114236 0.571181 0.342708 0.342708C0.571181 0.114236 0.845833 0 1.16667 0H9.33333L12.8333 3.5V6.41667H11.6667C11.6667 6.90278 11.4965 7.31597 11.1562 7.65625C10.816 7.99653 10.4028 8.16667 9.91667 8.16667C9.43056 8.16667 9.01736 7.99653 8.67708 7.65625C8.33681 7.31597 8.16667 6.90278 8.16667 6.41667H4.66667C4.66667 6.90278 4.49653 7.31597 4.15625 7.65625C3.81597 7.99653 3.40278 8.16667 2.91667 8.16667ZM8.16667 2.91667H10.5L8.75 1.16667H8.16667V2.91667ZM4.66667 2.91667H7V1.16667H4.66667V2.91667ZM1.16667 2.91667H3.5V1.16667H1.16667V2.91667ZM2.91667 7.14583C3.12083 7.14583 3.2934 7.07535 3.43438 6.93437C3.57535 6.7934 3.64583 6.62083 3.64583 6.41667C3.64583 6.2125 3.57535 6.03993 3.43438 5.89896C3.2934 5.75799 3.12083 5.6875 2.91667 5.6875C2.7125 5.6875 2.53993 5.75799 2.39896 5.89896C2.25799 6.03993 2.1875 6.2125 2.1875 6.41667C2.1875 6.62083 2.25799 6.7934 2.39896 6.93437C2.53993 7.07535 2.7125 7.14583 2.91667 7.14583ZM9.91667 7.14583C10.1208 7.14583 10.2934 7.07535 10.4344 6.93437C10.5753 6.7934 10.6458 6.62083 10.6458 6.41667C10.6458 6.2125 10.5753 6.03993 10.4344 5.89896C10.2934 5.75799 10.1208 5.6875 9.91667 5.6875C9.7125 5.6875 9.53993 5.75799 9.39896 5.89896C9.25799 6.03993 9.1875 6.2125 9.1875 6.41667C9.1875 6.62083 9.25799 6.7934 9.39896 6.93437C9.53993 7.07535 9.7125 7.14583 9.91667 7.14583ZM1.16667 5.25H1.63333C1.79861 5.075 1.98819 4.93403 2.20208 4.82708C2.41597 4.72014 2.65417 4.66667 2.91667 4.66667C3.17917 4.66667 3.41736 4.72014 3.63125 4.82708C3.84514 4.93403 4.03472 5.075 4.2 5.25H8.63333C8.79861 5.075 8.98819 4.93403 9.20208 4.82708C9.41597 4.72014 9.65417 4.66667 9.91667 4.66667C10.1792 4.66667 10.4174 4.72014 10.6313 4.82708C10.8451 4.93403 11.0347 5.075 11.2 5.25H11.6667V4.08333H1.16667V5.25ZM11.6667 4.08333H11.2C11.0347 4.08333 10.8451 4.08333 10.6313 4.08333C10.4174 4.08333 10.1792 4.08333 9.91667 4.08333C9.65417 4.08333 9.41597 4.08333 9.20208 4.08333C8.98819 4.08333 8.79861 4.08333 8.63333 4.08333H4.2C4.03472 4.08333 3.84514 4.08333 3.63125 4.08333C3.41736 4.08333 3.17917 4.08333 2.91667 4.08333C2.65417 4.08333 2.41597 4.08333 2.20208 4.08333C1.98819 4.08333 1.79861 4.08333 1.63333 4.08333H1.16667H11.6667Z" fill="#E5E2E1"/>
</svg>
