<svg width="10" height="12" viewBox="0 0 10 12" fill="none" xmlns="http://www.w3.org/2000/svg">
<path d="M4.08333 11.0833V9.33333H0V8.16667H9.33333V9.33333H5.25V11.0833H4.08333ZM2.91667 4.95833C3.08194 4.95833 3.22049 4.90243 3.33229 4.79063C3.4441 4.67882 3.5 4.54028 3.5 4.375C3.5 4.20972 3.4441 4.07118 3.33229 3.95937C3.22049 3.84757 3.08194 3.79167 2.91667 3.79167C2.75139 3.79167 2.61285 3.84757 2.50104 3.95937C2.38924 4.07118 2.33333 4.20972 2.33333 4.375C2.33333 4.54028 2.38924 4.67882 2.50104 4.79063C2.61285 4.90243 2.75139 4.95833 2.91667 4.95833ZM6.41667 4.95833C6.58194 4.95833 6.72049 4.90243 6.83229 4.79063C6.9441 4.67882 7 4.54028 7 4.375C7 4.20972 6.9441 4.07118 6.83229 3.95937C6.72049 3.84757 6.58194 3.79167 6.41667 3.79167C6.25139 3.79167 6.11285 3.84757 6.00104 3.95937C5.88924 4.07118 5.83333 4.20972 5.83333 4.375C5.83333 4.54028 5.88924 4.67882 6.00104 4.79063C6.11285 4.90243 6.25139 4.95833 6.41667 4.95833ZM0.583333 3.26667L1.54583 0.466667C1.59444 0.330556 1.67465 0.21875 1.78646 0.13125C1.89826 0.04375 2.02222 0 2.15833 0H7.175C7.31111 0 7.43507 0.04375 7.54688 0.13125C7.65868 0.21875 7.73889 0.330556 7.7875 0.466667L8.75 3.26667V7.11667C8.75 7.25278 8.70625 7.36458 8.61875 7.45208C8.53125 7.53958 8.41945 7.58333 8.28333 7.58333H8.05C7.91389 7.58333 7.80208 7.53958 7.71458 7.45208C7.62708 7.36458 7.58333 7.25278 7.58333 7.11667V6.41667H1.75V7.11667C1.75 7.25278 1.70625 7.36458 1.61875 7.45208C1.53125 7.53958 1.41944 7.58333 1.28333 7.58333H1.05C0.913889 7.58333 0.802083 7.53958 0.714583 7.45208C0.627083 7.36458 0.583333 7.25278 0.583333 7.11667V3.26667ZM2.12917 2.33333H7.20417L6.79583 1.16667H2.5375L2.12917 2.33333ZM1.75 3.5V5.25V3.5ZM1.75 5.25H7.58333V3.5H1.75V5.25Z" fill="#E5E2E1"/>
</svg>
