<svg width="24" height="24" viewBox="0 0 24 24" fill="none" xmlns="http://www.w3.org/2000/svg">
<path d="M13.043 1.75C19.2564 1.75 24.293 6.78663 24.293 13C24.293 19.2134 19.2564 24.25 13.043 24.25C11.0548 24.2534 9.10164 23.7273 7.38424 22.7256L1.79749 24.25L3.31849 18.661C2.31606 16.943 1.7895 14.989 1.79299 13C1.79299 6.78663 6.82961 1.75 13.043 1.75ZM9.20899 7.7125L8.98399 7.7215C8.83851 7.73152 8.69638 7.76973 8.56549 7.834C8.44351 7.9032 8.33212 7.98958 8.23474 8.0905C8.09974 8.21763 8.02324 8.32788 7.94111 8.43475C7.525 8.97577 7.30096 9.63998 7.30436 10.3225C7.30661 10.8737 7.45061 11.4104 7.67561 11.9121C8.13574 12.9269 8.89286 14.0012 9.89186 14.9969C10.1326 15.2365 10.3689 15.4773 10.6231 15.7011C11.8645 16.794 13.3437 17.5821 14.9431 18.0029L15.5821 18.1007C15.7902 18.112 15.9984 18.0963 16.2076 18.0861C16.5352 18.0688 16.855 17.9802 17.1447 17.8263C17.2919 17.7501 17.4357 17.6676 17.5756 17.5787C17.5756 17.5787 17.6232 17.5465 17.7162 17.4775C17.8681 17.365 17.9615 17.2851 18.0875 17.1535C18.182 17.056 18.2607 16.9427 18.3237 16.8138C18.4115 16.6304 18.4992 16.2805 18.5352 15.9891C18.5622 15.7664 18.5544 15.6449 18.551 15.5695C18.5465 15.4491 18.4464 15.3243 18.3372 15.2714L17.6825 14.9778C17.6825 14.9778 16.7037 14.5514 16.1052 14.2791C16.0426 14.2519 15.9755 14.2362 15.9072 14.233C15.8303 14.2249 15.7524 14.2335 15.6791 14.2582C15.6057 14.2828 15.5385 14.323 15.482 14.3759C15.4764 14.3736 15.401 14.4377 14.5876 15.4233C14.5409 15.486 14.4766 15.5334 14.4029 15.5594C14.3292 15.5855 14.2493 15.589 14.1736 15.5695C14.1003 15.55 14.0285 15.5251 13.9587 15.4953C13.8192 15.4368 13.7709 15.4142 13.6752 15.3737C13.0293 15.0924 12.4315 14.7117 11.9034 14.2454C11.7616 14.1216 11.63 13.9866 11.495 13.8561C11.0524 13.4322 10.6667 12.9527 10.3475 12.4296L10.2811 12.3228C10.2342 12.2505 10.1957 12.1731 10.1664 12.0921C10.1236 11.9268 10.235 11.794 10.235 11.794C10.235 11.794 10.5084 11.4948 10.6355 11.3327C10.7592 11.1753 10.8639 11.0223 10.9314 10.9131C11.0641 10.6994 11.1057 10.48 11.036 10.3101C10.721 9.54063 10.3955 8.77525 10.0595 8.014C9.99311 7.86325 9.79624 7.75525 9.61736 7.73387C9.55661 7.72637 9.49586 7.72038 9.43511 7.71588C9.28406 7.70721 9.13259 7.70871 8.98174 7.72038L9.20899 7.7125Z" fill="#E5E2E1"/>
</svg>
